<svg xmlns="http://www.w3.org/2000/svg" xmlns:xlink="http://www.w3.org/1999/xlink" style="margin:auto;background:#f1f2f3;display:block;z-index:1;position:relative" width="2560" height="1264" preserveAspectRatio="xMidYMid" viewBox="0 0 2560 1264">
<g transform="translate(1280,632) scale(1,1) translate(-1280,-632)"><linearGradient id="lg-0.7250940660702978" x1="0" x2="1" y1="0" y2="0">
  <stop stop-color="#5a2374" offset="0"></stop>
  <stop stop-color="#c7c7c7" offset="1"></stop>
</linearGradient><path d="M 2154 632 C 2154 883 1695 1095 1456 1173 C 1217 1251 758 1322 610 1119 C 462 916 493 371 641 168 C 789 -35 1266 -139 1505 -61 C 1744 17 2154 381 2154 632" fill="url(#lg-0.7250940660702978)" opacity="0.4">
  <animate attributeName="d" dur="10s" repeatCount="indefinite" keyTimes="0;0.3333333333333333;0.6666666666666666;1" calcmod="spline" keySplines="0.3 0.1 0.7 0.9;0.3 0.1 0.7 0.9;0.3 0.1 0.7 0.9" begin="-4s" values="M 2154 632 C 2154 883 1695 1095 1456 1173 C 1217 1251 758 1322 610 1119 C 462 916 493 371 641 168 C 789 -35 1266 -139 1505 -61 C 1744 17 2154 381 2154 632;M 2194 632 C 2194 911 1804 1343 1539 1429 C 1274 1515 651 1433 487 1208 C 323 983 431 359 595 134 C 759 -91 1260 -207 1525 -121 C 1790 -35 2194 353 2194 632;M 2209 632 C 2209 918 1778 1240 1506 1328 C 1234 1416 636 1453 468 1222 C 300 991 452 384 620 153 C 788 -78 1252 -208 1524 -120 C 1796 -32 2209 346 2209 632;M 2154 632 C 2154 883 1695 1095 1456 1173 C 1217 1251 758 1322 610 1119 C 462 916 493 371 641 168 C 789 -35 1266 -139 1505 -61 C 1744 17 2154 381 2154 632"></animate>
</path><path d="M 2183 632 C 2183 904 1748 1195 1490 1279 C 1232 1363 696 1393 536 1173 C 376 953 370 307 529 87 C 688 -133 1211 -33 1469 51 C 1727 135 2183 360 2183 632" fill="url(#lg-0.7250940660702978)" opacity="0.4">
  <animate attributeName="d" dur="10s" repeatCount="indefinite" keyTimes="0;0.3333333333333333;0.6666666666666666;1" calcmod="spline" keySplines="0.3 0.1 0.7 0.9;0.3 0.1 0.7 0.9;0.3 0.1 0.7 0.9" begin="-4s" values="M 2183 632 C 2183 904 1748 1195 1490 1279 C 1232 1363 696 1393 536 1173 C 376 953 370 307 529 87 C 688 -133 1211 -33 1469 51 C 1727 135 2183 360 2183 632;M 2263 632 C 2263 903 1782 1300 1524 1384 C 1266 1468 655 1421 496 1202 C 337 983 366 302 525 83 C 684 -136 1254 -167 1512 -83 C 1770 1 2263 361 2263 632;M 2154 632 C 2154 897 1727 1149 1475 1231 C 1223 1313 678 1398 522 1183 C 366 968 476 376 632 161 C 788 -54 1248 -128 1500 -46 C 1752 36 2154 367 2154 632;M 2183 632 C 2183 904 1748 1195 1490 1279 C 1232 1363 696 1393 536 1173 C 376 953 370 307 529 87 C 688 -133 1211 -33 1469 51 C 1727 135 2183 360 2183 632"></animate>
</path><path d="M 2119 632 C 2119 875 1737 1254 1506 1329 C 1275 1404 786 1292 643 1095 C 500 898 424 311 567 114 C 710 -83 1264 -106 1495 -31 C 1726 44 2119 389 2119 632" fill="url(#lg-0.7250940660702978)" opacity="0.4">
  <animate attributeName="d" dur="10s" repeatCount="indefinite" keyTimes="0;0.3333333333333333;0.6666666666666666;1" calcmod="spline" keySplines="0.3 0.1 0.7 0.9;0.3 0.1 0.7 0.9;0.3 0.1 0.7 0.9" begin="-4s" values="M 2119 632 C 2119 875 1737 1254 1506 1329 C 1275 1404 786 1292 643 1095 C 500 898 424 311 567 114 C 710 -83 1264 -106 1495 -31 C 1726 44 2119 389 2119 632;M 2240 632 C 2240 904 1779 1285 1520 1369 C 1261 1453 760 1346 600 1126 C 440 906 421 344 581 124 C 741 -96 1246 -145 1505 -61 C 1764 23 2240 360 2240 632;M 2051 632 C 2051 880 1717 1173 1481 1250 C 1245 1327 687 1370 541 1169 C 395 968 529 394 675 193 C 821 -8 1260 -109 1496 -32 C 1732 45 2051 384 2051 632;M 2119 632 C 2119 875 1737 1254 1506 1329 C 1275 1404 786 1292 643 1095 C 500 898 424 311 567 114 C 710 -83 1264 -106 1495 -31 C 1726 44 2119 389 2119 632"></animate>
</path><path d="M 2159 632 C 2159 875 1677 1066 1446 1141 C 1215 1216 758 1312 615 1115 C 472 918 471 345 614 148 C 757 -49 1226 13 1457 88 C 1688 163 2159 389 2159 632" fill="url(#lg-0.7250940660702978)" opacity="0.4">
  <animate attributeName="d" dur="10s" repeatCount="indefinite" keyTimes="0;0.3333333333333333;0.6666666666666666;1" calcmod="spline" keySplines="0.3 0.1 0.7 0.9;0.3 0.1 0.7 0.9;0.3 0.1 0.7 0.9" begin="-4s" values="M 2159 632 C 2159 875 1677 1066 1446 1141 C 1215 1216 758 1312 615 1115 C 472 918 471 345 614 148 C 757 -49 1226 13 1457 88 C 1688 163 2159 389 2159 632;M 2230 632 C 2230 878 1733 1231 1499 1307 C 1265 1383 722 1341 578 1142 C 434 943 511 377 656 178 C 801 -21 1217 28 1451 104 C 1685 180 2230 386 2230 632;M 2191 632 C 2191 891 1767 1293 1521 1373 C 1275 1453 809 1295 657 1085 C 505 875 491 379 643 169 C 795 -41 1239 -80 1485 0 C 1731 80 2191 373 2191 632;M 2159 632 C 2159 875 1677 1066 1446 1141 C 1215 1216 758 1312 615 1115 C 472 918 471 345 614 148 C 757 -49 1226 13 1457 88 C 1688 163 2159 389 2159 632"></animate>
</path><path d="M 2104 632 C 2104 875 1734 1245 1503 1320 C 1272 1395 804 1279 661 1082 C 518 885 527 386 670 189 C 813 -8 1256 -79 1487 -4 C 1718 71 2104 389 2104 632" fill="url(#lg-0.7250940660702978)" opacity="0.4">
  <animate attributeName="d" dur="10s" repeatCount="indefinite" keyTimes="0;0.3333333333333333;0.6666666666666666;1" calcmod="spline" keySplines="0.3 0.1 0.7 0.9;0.3 0.1 0.7 0.9;0.3 0.1 0.7 0.9" begin="-4s" values="M 2104 632 C 2104 875 1734 1245 1503 1320 C 1272 1395 804 1279 661 1082 C 518 885 527 386 670 189 C 813 -8 1256 -79 1487 -4 C 1718 71 2104 389 2104 632;M 2159 632 C 2159 904 1773 1268 1514 1352 C 1255 1436 679 1405 519 1185 C 359 965 333 280 493 60 C 653 -160 1217 -56 1476 28 C 1735 112 2159 360 2159 632;M 2178 632 C 2178 912 1793 1304 1527 1391 C 1261 1478 605 1469 440 1242 C 275 1015 320 281 485 54 C 650 -173 1252 -188 1518 -102 C 1784 -16 2178 352 2178 632;M 2104 632 C 2104 875 1734 1245 1503 1320 C 1272 1395 804 1279 661 1082 C 518 885 527 386 670 189 C 813 -8 1256 -79 1487 -4 C 1718 71 2104 389 2104 632"></animate>
</path></g>
</svg>